<svg width="117" height="18" viewBox="0 0 117 18" fill="none" xmlns="http://www.w3.org/2000/svg">
<path d="M21.4866 11.375C21.4866 13.675 21.0616 15.2083 20.2116 15.975C19.3783 16.725 17.72 17.1 15.2366 17.1L11.3616 17.175L8.21162 17.125C4.86162 17.125 2.70329 16.6917 1.73662 15.825C0.786621 14.9417 0.311621 13.575 0.311621 11.725L0.161621 8.225C0.161621 5.49167 0.561621 3.49167 1.36162 2.225C2.16162 0.941666 3.79495 0.299999 6.26162 0.299999L11.0116 0.174999C12.395 0.174999 13.5366 0.191666 14.4366 0.225C15.3366 0.241666 16.4283 0.316666 17.7116 0.449998C18.995 0.583332 19.9116 1.15 20.4616 2.15C21.0116 3.13333 21.2866 4.48333 21.2866 6.2H16.3616C16.3616 5.43333 16.17 4.925 15.7866 4.675C15.42 4.40833 14.8283 4.275 14.0116 4.275L12.5866 4.25H11.1866L8.61162 4.275C7.07829 4.275 6.13662 4.55833 5.78662 5.125C5.45329 5.69167 5.28662 6.86667 5.28662 8.65C5.28662 10.4833 5.48662 11.675 5.88662 12.225C6.28662 12.775 7.35329 13.05 9.08662 13.05L11.0616 13.1L13.6616 13.075C14.6783 13.075 15.4033 12.9333 15.8366 12.65C16.27 12.3667 16.4866 11.7 16.4866 10.65H21.4616L21.4866 11.375ZM31.7622 17H26.1122L35.4122 0.324999H42.2622L51.3622 17H45.7622L44.1872 13.975H33.4122L31.7622 17ZM35.1872 10.525H42.3372L38.7622 3.925L35.1872 10.525ZM61.1659 11.95C61.1659 12.6333 61.3909 13.0667 61.8409 13.25C62.3076 13.4167 62.9493 13.5 63.7659 13.5L66.1659 13.525L69.5659 13.425C70.4993 13.425 71.1076 13.3083 71.3909 13.075C71.6743 12.8417 71.8159 12.475 71.8159 11.975C71.8159 11.525 71.6493 11.1667 71.3159 10.9C70.9993 10.6333 70.3826 10.5 69.4659 10.5H68.6409L60.2909 10.325C58.7243 10.325 57.6159 9.93333 56.9659 9.15C56.3326 8.35 56.0159 7.13333 56.0159 5.5C56.0159 4.11667 56.2159 3.04167 56.6159 2.275C57.0326 1.50833 57.7743 0.991666 58.8409 0.724999C59.9243 0.441666 61.3326 0.274999 63.0659 0.225C64.8159 0.175 65.9909 0.149999 66.5909 0.149999L70.1409 0.199999C71.5576 0.199999 72.6993 0.316665 73.5659 0.549999C74.4326 0.766666 75.0409 1.175 75.3909 1.775C75.7576 2.375 75.9909 2.91667 76.0909 3.4C76.1909 3.88333 76.2409 4.55 76.2409 5.4H71.2659C71.2659 4.81667 71.0909 4.40833 70.7409 4.175C70.4076 3.94167 69.9326 3.825 69.3159 3.825L66.8659 3.8L62.9909 3.925C62.4743 3.925 62.0326 4.025 61.6659 4.225C61.3159 4.40833 61.1409 4.725 61.1409 5.175C61.1409 5.79167 61.3493 6.2 61.7659 6.4C62.1993 6.58333 62.7826 6.675 63.5159 6.675H64.0409L67.4409 6.725L70.7909 6.75C72.9409 6.75 74.4993 7.09167 75.4659 7.775C76.4493 8.44167 76.9409 9.79167 76.9409 11.825C76.9409 13.7917 76.4993 15.1417 75.6159 15.875C74.7493 16.6083 73.3076 16.975 71.2909 16.975L64.7909 17.15L61.3909 17.075C59.5909 17.075 58.2659 16.7833 57.4159 16.2C56.5659 15.6167 56.1409 14.4417 56.1409 12.675V11.675H61.1409L61.1659 11.95ZM82.9509 17V0.324999H88.0259V17H82.9509ZM105.125 0.149999L109.175 0.174999C112.141 0.174999 114.166 0.666666 115.25 1.65C116.35 2.63333 116.9 4.6 116.9 7.55V8.35C116.9 11.8167 116.466 14.1417 115.6 15.325C114.733 16.4917 112.541 17.075 109.025 17.075L105.2 17.15L103.6 17.175L100.15 17.05C98.2164 17.05 96.7247 16.6167 95.6747 15.75C94.6247 14.8667 94.0997 13.45 94.0997 11.5L94.0497 8.425C94.0497 5.04167 94.483 2.83333 95.3497 1.8C96.2164 0.75 98.2747 0.225 101.525 0.225L105.125 0.149999ZM102.375 13.025L105.1 13.075L107.7 13.05C109.133 13.05 110.158 12.9 110.775 12.6C111.408 12.2833 111.725 11.5167 111.725 10.3L111.775 8.05C111.775 7.28333 111.725 6.63333 111.625 6.1C111.541 5.55 111.358 5.15 111.075 4.9C110.791 4.63333 110.366 4.45833 109.8 4.375C109.25 4.29167 108.658 4.25 108.025 4.25L102.975 4.275C101.825 4.275 100.95 4.39167 100.35 4.625C99.7497 4.85833 99.3997 5.35833 99.2997 6.125C99.2164 6.875 99.1747 7.5 99.1747 8V8.45V9.125C99.1747 10.6583 99.3497 11.6917 99.6997 12.225C100.066 12.7583 100.958 13.025 102.375 13.025Z" fill="black"/>
</svg>
